<?xml version="1.0" encoding="UTF-8"?>
<svg id="Layer_2" data-name="Layer 2" xmlns="http://www.w3.org/2000/svg" viewBox="255 175 580 630">
  <defs>
    <style>
      .cls-1 {
        fill: #1d2731;
      }

      .cls-2 {
        fill: #f1f3f7;
      }

      .cls-3 {
        fill: #f0f2f8;
      }

      .cls-4 {
        fill: #241d0f;
      }

      .cls-5 {
        fill: #374353;
      }

      .cls-6 {
        fill: #131b26;
      }

      .cls-7 {
        fill: #ac9665;
      }

      .cls-8 {
        fill: #56656f;
      }

      .cls-9 {
        fill: #445362;
      }

      .cls-10 {
        fill: #161e2a;
      }

      .cls-11 {
        fill: none;
        stroke: #161e2a;
        stroke-miterlimit: 10;
        stroke-width: 16px;
      }

      .cls-12 {
        fill: #2b3948;
      }

      .cls-13 {
        fill: #384656;
      }

      .cls-14 {
        fill: #5b6f80;
      }

      .cls-15 {
        fill: #657684;
      }

      .cls-16 {
        fill: #d7dede;
      }

      .cls-17 {
        fill: #5d6c78;
      }
    </style>
  </defs>
  <path class="cls-13" d="M534.79,571.64l-12.61,23.78s60.56,150.02,152.59,154.31c0,0,39.36,4.97,80.03-67.35l69.89-42.38-289.89-68.36Z"/>
  <path class="cls-12" d="M534.79,566.81v18.03s164.89,129.75,271.28,59.43l22.94-14.69-294.22-62.76Z"/>
  <path class="cls-17" d="M539.75,571.1s102.86,60.19,132.69,69.94,156.57-5.74,156.57-5.74c0,0-129.84-43.97-186.51-124.08,0,0-121.88,44.98-102.75,59.87Z"/>
  <path class="cls-1" d="M524.77,606.63s14.48,117.65,64.25,179.58c0,0,21.22-40.41,53.48-38.45,0,0-97.61-93.78-117.72-141.13Z"/>
  <path class="cls-5" d="M480.65,603.9s19.66,8.1,32.26-3.35l75.6,190.83-15.27,6.53s-60.81-52.39-115.36-5.02c0,0,7.7-169.25,22.76-189Z"/>
  <path class="cls-15" d="M345.13,508.43l126.32,53-2.4,72.5-19.78,160.5s-151.43-30.61-176.93-60.66-5.04-62.27-5.04-62.27c0,0,47.23-146.83,77.84-163.06Z"/>
  <path class="cls-16" d="M347.57,511.23l23.57,15.34s-122.3,180.66-75.48,210.27l-10.42,5.83-25.01-23.84s39.6-167.08,87.35-207.6Z"/>
  <path class="cls-8" d="M363.8,526.57l11.46,7.64s-115.51,186.15-51.07,219.11c0,0-36.84-1.95-42.5-36.95-1.54-9.55-.29-19.34,3.19-28.37,11.57-30.06,51.9-131.81,78.92-161.43Z"/>
  <path class="cls-11" d="M454.3,786.21l21.98-226.93,31.82.27s27.09,146.51,80.93,226.66c0,0,17.27-31.09,42.69-37.03,5.71-1.33,7.31-8.72,2.7-12.34-36.15-28.37-112.43-97.33-121.26-180.07"/>
  <path class="cls-9" d="M303.21,418.35c10.16-35.9,71.79-235.15,188.39-237.29,1.02-.02,2.05-.05,3.07-.15,13.55-1.28,141.22-6.51,194.14,241.69.14.68.32,1.35.5,2.01,2.06,7.4,13.35,68.58-151.41,130.58,0,0-101.79,34.82-225.52-98.65-6.88-7.42-10.69-17.17-10.69-27.29h0c0-3.69.5-7.36,1.51-10.9Z"/>
  <path class="cls-11" d="M345.13,503.18s-76.34,112.78-85.29,210.34c0,0-13.66,32.95,159.25,77.52,16.73,4.31,34.46,1.76,49.41-6.9,21.81-12.64,60.5-23.67,105.52,14.42,0,0,15.08,6.17,25.44-18.07,7.35-17.2,22.78-29.81,41.29-32.48,9.8-1.41,21.77-1.15,36.2,2.22,0,0,46.54,2.69,75.19-64.45,0,0,7.88-15.75,67.23-39.87,7.8-3.17,7.48-14.36-.51-17.03-.87-.29-1.8-.56-2.79-.79-22.35-5.34-43.79-13.95-62.98-26.59-39.22-25.83-94.6-65.05-110.58-90.26,0,0-143.16,116.36-297.37-8.06Z"/>
  <path class="cls-11" d="M303.21,418.35c10.16-35.9,71.79-235.15,188.39-237.29,1.02-.02,2.05-.05,3.07-.15,13.55-1.28,141.22-6.51,194.14,241.69.14.68.32,1.35.5,2.01,2.06,7.4,13.35,68.58-151.41,130.58,0,0-101.79,34.82-225.52-98.65-6.88-7.42-10.69-17.17-10.69-27.29h0c0-3.69.5-7.36,1.51-10.9Z"/>
  <circle class="cls-4" cx="497.13" cy="566.81" r="42.83"/>
  <circle class="cls-7" cx="498.11" cy="563.73" r="26.66"/>
  <path class="cls-14" d="M507.63,187.36s42.42,54.77,5.21,91.16c0,0,.73,15.63,12.08,22.79l-66.13,248.75s-67.72-22.14-122.42-78.14c0,0-44.13-47.6,55.3-190.75,0,0,56-82.58,115.96-93.82Z"/>
  <path class="cls-6" d="M620.47,459.52l-95.69,70.21c-21.15,20.14-72.13,11.87-92.27-9.28l-64.35-50.18c-13.84-10.79-22.57-27.1-23.02-44.64-.36-14.22,4.44-28.31,15.01-38.38l75.65-70.98c7.93-7.55,20.16-13.75,34.45-17.17,31.77-7.61,65.25,1.17,89.9,22.6l64.17,55.81c6.09,5.3,11.05,11.84,14.14,19.29,2.33,5.62,3.65,11.55,3.96,17.52.92,17.75-7.64,34.67-21.97,45.18Z"/>
  <circle class="cls-2" cx="486.11" cy="554.1" r="5.46"/>
  <path class="cls-2" d="M480.63,567.2c0,3.03.86,13.78,13.41,15.72.73.11,1.34.59,1.67,1.25.94,1.84,1.75,5.16-5.75,3.64-9.84-2-14.01-10.26-13.67-20.44.02-.71.37-1.38.96-1.78.65-.44,1.55-.79,2.44-.23.61.39.94,1.11.94,1.84Z"/>
  <path class="cls-2" d="M409.02,377.72c9.66-.8,28.02,2.75,53.7,29.79,4.25,4.48,3.79,11.69-1.03,15.56-6.28,5.03-18.72,7.65-43.06-5.39-.25-.13-.49-.27-.73-.43-2.83-1.8-19.53-13.16-18.46-29.72.33-5.16,4.42-9.38,9.58-9.81Z"/>
  <path class="cls-2" d="M524.22,403.96c11.5-2.74,36.35-10.26,44.84-25.54,3.08-5.54,8.96-9.11,15.3-9.03,6.88.08,13.03,4.49,8.43,22.68-8.07,31.88-57,41.1-71.57,19.46-1.92-2.86-.35-6.77,3-7.57Z"/>
  <path class="cls-3" d="M339.57,473.6s-34.34-32.54,19.9-123.55c7.91-13.27,15.35-26.82,22.55-40.49,18.71-35.54,62.66-105.26,126.07-120.73,0,0-89.9-17.75-150.82,115.17-56.15,122.51-62.36,136.77-17.7,169.59Z"/>
  <path class="cls-10" d="M345.13,712.82s-6.21,39.81,3.41,51.95l-27.63-11.58s16.4-43.9,24.22-40.37Z"/>
</svg>